<svg xmlns="http://www.w3.org/2000/svg" shape-rendering="geometricPrecision" text-rendering="geometricPrecision" image-rendering="optimizeQuality" fill-rule="evenodd" clip-rule="evenodd" viewBox="0 0 512 512"><path fill-rule="nonzero" d="M256 0c70.686 0 134.69 28.658 181.016 74.984C483.342 121.31 512 185.314 512 256c0 70.686-28.658 134.69-74.984 181.016C390.69 483.342 326.686 512 256 512c-70.686 0-134.69-28.658-181.016-74.984C28.658 390.69 0 326.686 0 256c0-70.686 28.658-134.69 74.984-181.016C121.31 28.658 185.314 0 256 0z"/><path fill="#FEC901" d="M256 29.464c125.114 0 226.536 101.422 226.536 226.536S381.114 482.536 256 482.536 29.464 381.114 29.464 256 130.886 29.464 256 29.464z"/><path d="M256 341.492c14.453 0 26.168 11.717 26.168 26.171 0 14.453-11.715 26.167-26.168 26.167s-26.171-11.714-26.171-26.167c0-14.454 11.718-26.171 26.171-26.171zm19.55-39.211c-.88 22.063-38.246 22.092-39.1-.007-3.778-37.804-13.443-127.553-13.135-163.074.311-10.946 9.383-17.426 20.989-19.898 3.578-.765 7.513-1.136 11.477-1.132 3.986.007 7.932.4 11.514 1.165 11.988 2.554 21.401 9.301 21.398 20.444l-.045 1.117-13.098 161.385z"/></svg>